# File created by Blade
# Date/Time:  Tue Apr 07 20:17:56 2015
# Frame Rate: 120.000 fps
#------------------------------------------------------
:FULLY-SPECIFIED
:DEGREES
898
root 5.407395 34.867189 -10.325135 18.567435 -8.602546 -49.535149
Spine 1.487182 6.873161 28.137109
Head -1.846824 0.276304 11.550375
LeftShoulder -22.577206 44.657244 15.437968
LeftArm 48.421134 -32.319957 -89.205301
LeftForeArm 0.306005 -0.000000 18.679344
LeftHand 13.976938 -0.000000 11.811481
LeftHandThumb1 -26.253704 0.000000 33.147579
RightShoulder -5.149017 -6.696942 -6.502942
RightArm 5.379006 2.784337 56.937400
RightForeArm 37.383956 -0.000000 20.776295
RightHand 12.583732 0.000000 21.646722
RightHandThumb1 -24.326973 -0.000000 -32.862282
LeftUpLeg -13.782267 11.031594 47.633743
LeftLeg 18.815797 -0.000000 -0.000000
LeftFoot -11.195177 -1.106310 -31.614898
LeftToeBase 5.114506 -0.000000 -0.000000
RightUpLeg -87.513872 -45.771380 -12.292820
RightLeg 118.721373 -0.000000 -0.000000
RightFoot 42.134274 4.955714 -5.649450
RightToeBase 36.671537 -0.000000 -0.000000
899
root 5.401240 34.868058 -10.360483 18.566621 -8.442769 -49.358500
Spine 1.468298 6.736327 27.988943
Head -1.888574 0.279042 11.497517
LeftShoulder -22.606146 44.623301 15.338009
LeftArm 48.443501 -32.247281 -88.988602
LeftForeArm 0.305363 -0.000000 18.949513
LeftHand 14.069800 0.000000 12.113685
LeftHandThumb1 -26.253704 0.000000 33.147579
RightShoulder -5.273600 -7.082777 -6.685718
RightArm 5.136824 2.044724 57.348496
RightForeArm 36.671055 -0.000000 22.163639
RightHand 12.540972 -0.000000 21.235256
RightHandThumb1 -24.326973 -0.000000 -32.862282
LeftUpLeg -13.917156 11.048362 47.489246
LeftLeg 18.584128 -0.000000 -0.000000
LeftFoot -11.171577 -1.109829 -31.705375
LeftToeBase 5.259880 -0.000000 -0.000000
RightUpLeg -87.546641 -45.741945 -12.312025
RightLeg 119.797526 -0.000000 -0.000000
RightFoot 42.439788 4.914362 -5.121940
RightToeBase 36.949335 -0.000000 -0.000000
900
root 5.397111 34.864057 -10.393914 18.536149 -8.308181 -49.149008
Spine 1.477001 6.600533 27.815413
Head -1.902761 0.276316 11.408363
LeftShoulder -22.642828 44.626626 15.206090
LeftArm 48.513772 -32.219803 -88.811964
LeftForeArm 0.497734 -0.000000 19.235940
LeftHand 14.045550 0.000000 13.094780
LeftHandThumb1 -26.253704 0.000000 33.147579
RightShoulder -5.378607 -7.693742 -6.899202
RightArm 5.055910 1.280994 57.804931
RightForeArm 36.370642 0.000000 23.643421
RightHand 12.482863 -0.000000 20.814945
RightHandThumb1 -24.326973 -0.000000 -32.862282
LeftUpLeg -14.033047 11.048992 47.306397
LeftLeg 18.400337 -0.000000 -0.000000
LeftFoot -11.140392 -1.177758 -31.822533
LeftToeBase 5.285766 -0.000000 -0.000000
RightUpLeg -87.538830 -45.715185 -12.352013
RightLeg 120.824957 -0.000000 -0.000000
RightFoot 42.709748 5.083086 -4.975212
RightToeBase 36.602258 -0.000000 -0.000000
901
root 5.393665 34.858325 -10.421516 18.489651 -8.209694 -48.971825
Spine 1.504783 6.496560 27.679869
Head -1.866348 0.269006 11.292376
LeftShoulder -22.660562 44.648494 15.068033
LeftArm 48.626548 -32.296023 -88.732899
LeftForeArm 0.417057 -0.000000 19.578353
LeftHand 14.125096 -0.000000 13.356997
LeftHandThumb1 -26.253704 0.000000 33.147579
RightShoulder -5.480180 -8.419903 -7.117954
RightArm 5.062788 0.403446 58.254862
RightForeArm 36.412898 0.000000 25.151438
RightHand 12.497155 -0.000000 20.274036
RightHandThumb1 -24.326973 -0.000000 -32.862282
LeftUpLeg -14.048705 11.006897 47.153130
LeftLeg 18.157446 -0.000000 -0.000000
LeftFoot -11.122812 -1.276507 -31.967522
LeftToeBase 5.258937 -0.000000 -0.000000
RightUpLeg -87.482404 -45.664364 -12.377183
RightLeg 121.826615 -0.000000 -0.000000
RightFoot 42.988121 5.016456 -4.642534
RightToeBase 36.595804 -0.000000 -0.000000
